<svg xmlns="http://www.w3.org/2000/svg" width="52.519" height="43.766" viewBox="0 0 52.519 43.766">
  <g id="camera" transform="translate(1 1)">
    <path id="Trazado_4651" data-name="Trazado 4651" d="M45.954,45.766H6.565A6.572,6.572,0,0,1,0,39.2V15.13A6.572,6.572,0,0,1,6.565,8.565h7.582l3.727-5.59A2.188,2.188,0,0,1,19.695,2h13.13a2.188,2.188,0,0,1,1.821.974l3.727,5.59h7.582a6.572,6.572,0,0,1,6.565,6.565V39.2A6.572,6.572,0,0,1,45.954,45.766ZM6.565,12.941A2.191,2.191,0,0,0,4.377,15.13V39.2a2.191,2.191,0,0,0,2.188,2.188H45.954A2.191,2.191,0,0,0,48.143,39.2V15.13a2.191,2.191,0,0,0-2.188-2.188H37.2a2.188,2.188,0,0,1-1.821-.974l-3.727-5.59H20.866l-3.727,5.59a2.188,2.188,0,0,1-1.821.974Z" transform="translate(-1 -3)" fill="#1b0c3f"/>
    <path id="Elipse_85" data-name="Elipse 85" d="M9.941-1A10.941,10.941,0,1,1-1,9.941,10.954,10.954,0,0,1,9.941-1Zm0,17.506A6.565,6.565,0,1,0,3.377,9.941,6.572,6.572,0,0,0,9.941,16.506Z" transform="translate(14.314 13.13)" fill="#1b0c3f"/>
  </g>
</svg>
