<svg xmlns="http://www.w3.org/2000/svg" width="24" height="24" viewBox="0 0 24 24">
  <g id="Grupo_2904" data-name="Grupo 2904" transform="translate(8131 8847)">
    <circle id="Elipse_168" data-name="Elipse 168" cx="12" cy="12" r="12" transform="translate(-8131 -8847)" fill="#8dc53f"/>
    <g id="check-circle" transform="translate(-8128 -8843.991)">
      <path id="Trazado_4822" data-name="Trazado 4822" d="M9,16.991a8,8,0,1,1,3.26-15.305.727.727,0,1,1-.592,1.328A6.544,6.544,0,1,0,6.731,15.128a6.545,6.545,0,0,0,8.814-6.134V8.326a.727.727,0,0,1,1.454,0v.669a8.011,8.011,0,0,1-8,8Z" transform="translate(0 0)" fill="#fff"/>
      <path id="Trazado_4823" data-name="Trazado 4823" d="M10.909,11.734a.727.727,0,0,1-.514-.213L8.213,9.34A.727.727,0,0,1,9.241,8.311l1.667,1.667,6.758-6.765A.727.727,0,0,1,18.7,4.241l-7.272,7.28A.727.727,0,0,1,10.909,11.734Z" transform="translate(-1.909 -0.548)" fill="#fff"/>
    </g>
  </g>
</svg>
