<svg id="Big_icon_-_Respuestas" data-name="Big icon - Respuestas" xmlns="http://www.w3.org/2000/svg" xmlns:xlink="http://www.w3.org/1999/xlink" width="120" height="120" viewBox="0 0 120 120">
  <defs>
    <clipPath id="clip-path">
      <rect id="Rect치ngulo_505" data-name="Rect치ngulo 505" width="60" height="60" transform="translate(-2532.357 3244.642)" fill="#fff" stroke="#707070" stroke-width="1"/>
    </clipPath>
  </defs>
  <rect id="Rect치ngulo_333" data-name="Rect치ngulo 333" width="120" height="120" rx="60" transform="translate(120) rotate(90)" fill="#8dc53f"/>
  <g id="icon-done" transform="translate(2562.357 -3214.643)" clip-path="url(#clip-path)">
    <path id="check_circle_FILL0_wght400_GRAD0_opsz24" d="M105.547-844.947l-6.387-6.387a2.817,2.817,0,0,0-2.079-.817,2.817,2.817,0,0,0-2.079.817,2.816,2.816,0,0,0-.817,2.079A2.817,2.817,0,0,0,95-847.175l8.466,8.466a2.85,2.85,0,0,0,2.079.891,2.85,2.85,0,0,0,2.079-.891l16.784-16.784a2.817,2.817,0,0,0,.817-2.079,2.817,2.817,0,0,0-.817-2.079,2.817,2.817,0,0,0-2.079-.817,2.817,2.817,0,0,0-2.079.817Zm4.159,24.359a28.922,28.922,0,0,1-11.585-2.34,30,30,0,0,1-9.432-6.349,30,30,0,0,1-6.35-9.432A28.927,28.927,0,0,1,80-850.294a28.924,28.924,0,0,1,2.339-11.585,29.991,29.991,0,0,1,6.35-9.432,30,30,0,0,1,9.432-6.35A28.922,28.922,0,0,1,109.706-880a28.922,28.922,0,0,1,11.585,2.339,30,30,0,0,1,9.432,6.35,29.991,29.991,0,0,1,6.35,9.432,28.925,28.925,0,0,1,2.339,11.585,28.928,28.928,0,0,1-2.339,11.585,30,30,0,0,1-6.35,9.432,30,30,0,0,1-9.432,6.349A28.923,28.923,0,0,1,109.706-820.588Zm0-5.941a22.936,22.936,0,0,0,16.858-6.907,22.935,22.935,0,0,0,6.907-16.858,22.937,22.937,0,0,0-6.907-16.858,22.937,22.937,0,0,0-16.858-6.906,22.937,22.937,0,0,0-16.858,6.906,22.937,22.937,0,0,0-6.907,16.858,22.935,22.935,0,0,0,6.907,16.858A22.936,22.936,0,0,0,109.706-826.529ZM109.706-850.294Z" transform="translate(-2612.064 4124.936)" fill="#fff"/>
  </g>
</svg>
