<svg id="Big_icon_-_Respuestas" data-name="Big icon - Respuestas" xmlns="http://www.w3.org/2000/svg" xmlns:xlink="http://www.w3.org/1999/xlink" width="120" height="120" viewBox="0 0 120 120">
  <defs>
    <clipPath id="clip-path">
      <rect id="Rect치ngulo_698" data-name="Rect치ngulo 698" width="60" height="60" transform="translate(-0.395 -0.394)" fill="#fff" stroke="#707070" stroke-width="1"/>
    </clipPath>
  </defs>
  <rect id="Rect치ngulo_333" data-name="Rect치ngulo 333" width="120" height="120" rx="60" transform="translate(120) rotate(90)" fill="#fa2323"/>
  <g id="icon-error" transform="translate(30.395 30.394)" clip-path="url(#clip-path)">
    <path id="error_FILL0_wght400_GRAD0_opsz24" d="M110-835a2.9,2.9,0,0,0,2.138-.863A2.9,2.9,0,0,0,113-838a2.9,2.9,0,0,0-.863-2.137A2.9,2.9,0,0,0,110-841a2.9,2.9,0,0,0-2.137.863A2.9,2.9,0,0,0,107-838a2.9,2.9,0,0,0,.863,2.137A2.9,2.9,0,0,0,110-835Zm0-12a2.9,2.9,0,0,0,2.138-.863A2.9,2.9,0,0,0,113-850v-12a2.9,2.9,0,0,0-.863-2.137A2.9,2.9,0,0,0,110-865a2.9,2.9,0,0,0-2.137.863A2.9,2.9,0,0,0,107-862v12a2.9,2.9,0,0,0,.863,2.137A2.9,2.9,0,0,0,110-847Zm0,27a29.212,29.212,0,0,1-11.7-2.362,30.3,30.3,0,0,1-9.525-6.413,30.3,30.3,0,0,1-6.412-9.525A29.211,29.211,0,0,1,80-850a29.211,29.211,0,0,1,2.363-11.7,30.3,30.3,0,0,1,6.412-9.526,30.3,30.3,0,0,1,9.525-6.412A29.212,29.212,0,0,1,110-880a29.212,29.212,0,0,1,11.7,2.362,30.3,30.3,0,0,1,9.525,6.412,30.3,30.3,0,0,1,6.412,9.526A29.211,29.211,0,0,1,140-850a29.211,29.211,0,0,1-2.363,11.7,30.3,30.3,0,0,1-6.412,9.525,30.3,30.3,0,0,1-9.525,6.413A29.212,29.212,0,0,1,110-820Zm0-6a23.162,23.162,0,0,0,17.025-6.975A23.162,23.162,0,0,0,134-850a23.163,23.163,0,0,0-6.975-17.025A23.163,23.163,0,0,0,110-874a23.164,23.164,0,0,0-17.025,6.975A23.163,23.163,0,0,0,86-850a23.162,23.162,0,0,0,6.975,17.025A23.162,23.162,0,0,0,110-826ZM110-850Z" transform="translate(-80.395 879.606)" fill="#fff"/>
  </g>
</svg>
