<svg id="icono_contraseña" data-name="icono contraseña" xmlns="http://www.w3.org/2000/svg" width="228.833" height="89.096" viewBox="0 0 228.833 89.096">
  <path id="Trazado_4625" data-name="Trazado 4625" d="M-97.782,88.818H-222.933a13.967,13.967,0,0,1-13.93-13.973V31.929a13.967,13.967,0,0,1,13.93-13.973H-21.96A13.967,13.967,0,0,1-8.03,31.929V64.7a2.961,2.961,0,0,1-2.956,2.965A2.961,2.961,0,0,1-13.942,64.7V31.929a8.039,8.039,0,0,0-8.018-8.043H-222.933a8.039,8.039,0,0,0-8.018,8.043V74.845a8.039,8.039,0,0,0,8.018,8.043H-97.782a2.96,2.96,0,0,1,2.956,2.965A2.96,2.96,0,0,1-97.782,88.818Z" transform="translate(236.863 -17.956)" fill="#f19600"/>
  <g id="Grupo_2382" data-name="Grupo 2382" transform="translate(22.907 17.381)">
    <path id="Línea_300" data-name="Línea 300" d="M.956,34.183A2.961,2.961,0,0,1-2,31.217V.965a2.956,2.956,0,1,1,5.912,0V31.217A2.961,2.961,0,0,1,.956,34.183Z" transform="translate(14.937 2)" fill="#f19600"/>
    <path id="Línea_301" data-name="Línea 301" d="M26.827,19.473a2.935,2.935,0,0,1-1.516-.422L-.563,3.509A2.97,2.97,0,0,1-1.58-.558,2.951,2.951,0,0,1,2.475-1.579L28.348,13.964a2.967,2.967,0,0,1-1.521,5.509Z" transform="translate(2 9.355)" fill="#f19600"/>
    <path id="Línea_302" data-name="Línea 302" d="M.959,19.473A2.952,2.952,0,0,1-1.58,18.031,2.97,2.97,0,0,1-.563,13.964L25.311-1.579A2.951,2.951,0,0,1,29.366-.558a2.97,2.97,0,0,1-1.017,4.067L2.475,19.051A2.936,2.936,0,0,1,.959,19.473Z" transform="translate(2 9.355)" fill="#f19600"/>
  </g>
  <g id="Grupo_2383" data-name="Grupo 2383" transform="translate(65.937 17.381)">
    <path id="Línea_303" data-name="Línea 303" d="M.956,34.183A2.961,2.961,0,0,1-2,31.217V.965a2.956,2.956,0,1,1,5.912,0V31.217A2.961,2.961,0,0,1,.956,34.183Z" transform="translate(14.937 2)" fill="#f19600"/>
    <path id="Línea_304" data-name="Línea 304" d="M26.827,19.473a2.935,2.935,0,0,1-1.516-.422L-.563,3.509A2.97,2.97,0,0,1-1.58-.558,2.951,2.951,0,0,1,2.475-1.579L28.348,13.964a2.967,2.967,0,0,1-1.521,5.509Z" transform="translate(2 9.355)" fill="#f19600"/>
    <path id="Línea_305" data-name="Línea 305" d="M.959,19.473A2.952,2.952,0,0,1-1.58,18.031,2.97,2.97,0,0,1-.563,13.964L25.311-1.579A2.951,2.951,0,0,1,29.366-.558a2.97,2.97,0,0,1-1.017,4.067L2.475,19.051A2.936,2.936,0,0,1,.959,19.473Z" transform="translate(2 9.355)" fill="#f19600"/>
  </g>
  <g id="Grupo_2384" data-name="Grupo 2384" transform="translate(108.6 17.381)">
    <path id="Línea_306" data-name="Línea 306" d="M.956,34.183A2.961,2.961,0,0,1-2,31.217V.965a2.956,2.956,0,1,1,5.912,0V31.217A2.961,2.961,0,0,1,.956,34.183Z" transform="translate(14.937 2)" fill="#f19600"/>
    <path id="Línea_307" data-name="Línea 307" d="M26.827,19.473a2.935,2.935,0,0,1-1.516-.422L-.563,3.509A2.97,2.97,0,0,1-1.58-.558,2.951,2.951,0,0,1,2.475-1.579L28.348,13.964a2.967,2.967,0,0,1-1.521,5.509Z" transform="translate(2 9.355)" fill="#f19600"/>
    <path id="Línea_308" data-name="Línea 308" d="M.959,19.473A2.952,2.952,0,0,1-1.58,18.031,2.97,2.97,0,0,1-.563,13.964L25.311-1.579A2.951,2.951,0,0,1,29.366-.558a2.97,2.97,0,0,1-1.017,4.067L2.475,19.051A2.936,2.936,0,0,1,.959,19.473Z" transform="translate(2 9.355)" fill="#f19600"/>
  </g>
  <g id="lock" transform="translate(151.828 16.03)">
    <path id="Rectángulo_1178" data-name="Rectángulo 1178" d="M8.933-1H55.284a9.959,9.959,0,0,1,9.933,9.964V32.212a9.959,9.959,0,0,1-9.933,9.964H8.933A9.959,9.959,0,0,1-1,32.212V8.964A9.959,9.959,0,0,1,8.933-1ZM55.284,35.533A3.32,3.32,0,0,0,58.6,32.212V8.964a3.32,3.32,0,0,0-3.311-3.321H8.933A3.32,3.32,0,0,0,5.622,8.964V32.212a3.32,3.32,0,0,0,3.311,3.321Z" transform="translate(1 30.891)" fill="#f19600"/>
    <path id="Trazado_4620" data-name="Trazado 4620" d="M42.419,37.533a3.316,3.316,0,0,1-3.311-3.321V20.927A13.279,13.279,0,0,0,25.865,7.642,13.264,13.264,0,0,0,12.622,20.927V34.212a3.311,3.311,0,1,1-6.622,0V20.927a19.865,19.865,0,1,1,39.73,0V34.212A3.316,3.316,0,0,1,42.419,37.533Z" transform="translate(7.243 -1)" fill="#f19600"/>
  </g>
</svg>
