<svg id="Big_icon_-_Respuestas" data-name="Big icon - Respuestas" xmlns="http://www.w3.org/2000/svg" xmlns:xlink="http://www.w3.org/1999/xlink" width="120" height="120" viewBox="0 0 120 120">
  <defs>
    <clipPath id="clip-path">
      <rect id="Rect치ngulo_697" data-name="Rect치ngulo 697" width="60" height="60" transform="translate(-1924 3317)" fill="#fff" stroke="#707070" stroke-width="1"/>
    </clipPath>
  </defs>
  <rect id="Rect치ngulo_333" data-name="Rect치ngulo 333" width="120" height="120" rx="60" transform="translate(120) rotate(90)" fill="#f9be2c"/>
  <g id="icon-warning" transform="translate(1954 -3287)" clip-path="url(#clip-path)">
    <path id="warning_FILL0_wght400_GRAD0_opsz24" d="M72.351-787.5a2.756,2.756,0,0,1-1.462-.4,2.842,2.842,0,0,1-1.023-1.057,3.2,3.2,0,0,1-.4-1.422,2.616,2.616,0,0,1,.4-1.495L96.9-838.542a2.867,2.867,0,0,1,1.133-1.094A3.03,3.03,0,0,1,99.462-840a3.03,3.03,0,0,1,1.425.365,2.867,2.867,0,0,1,1.133,1.094l27.038,46.667a2.615,2.615,0,0,1,.4,1.495,3.194,3.194,0,0,1-.4,1.422,2.842,2.842,0,0,1-1.023,1.057,2.756,2.756,0,0,1-1.461.4Zm5.042-5.833H121.53L99.462-831.25Zm22.069-2.917a2.831,2.831,0,0,0,2.083-.839,2.819,2.819,0,0,0,.84-2.078,2.819,2.819,0,0,0-.84-2.078,2.832,2.832,0,0,0-2.083-.839,2.832,2.832,0,0,0-2.083.839,2.819,2.819,0,0,0-.84,2.078,2.819,2.819,0,0,0,.84,2.078A2.831,2.831,0,0,0,99.462-796.25Zm0-8.75a2.831,2.831,0,0,0,2.083-.839,2.818,2.818,0,0,0,.84-2.078v-8.75a2.82,2.82,0,0,0-.84-2.078,2.831,2.831,0,0,0-2.083-.838,2.831,2.831,0,0,0-2.083.838,2.82,2.82,0,0,0-.84,2.078v8.75a2.818,2.818,0,0,0,.84,2.078A2.831,2.831,0,0,0,99.462-805ZM99.462-812.292Z" transform="translate(-1993.462 4160.75)" fill="#fff"/>
  </g>
</svg>
