<svg xmlns="http://www.w3.org/2000/svg" width="146" height="57" viewBox="0 0 146 57">
  <g id="Grupo_6511" data-name="Grupo 6511" transform="translate(-2497 -5662)">
    <path id="Trazado_4625" data-name="Trazado 4625" d="M-148.127,63.29h-79.849a8.924,8.924,0,0,1-8.887-8.939V26.9a8.924,8.924,0,0,1,8.887-8.939H-99.75A8.924,8.924,0,0,1-90.863,26.9V47.858a1.891,1.891,0,0,1-1.886,1.9,1.891,1.891,0,0,1-1.886-1.9V26.9A5.136,5.136,0,0,0-99.75,21.75H-227.976a5.136,5.136,0,0,0-5.116,5.146V54.351a5.136,5.136,0,0,0,5.116,5.146h79.849a1.891,1.891,0,0,1,1.886,1.9A1.891,1.891,0,0,1-148.127,63.29Z" transform="translate(2733.863 5644.044)" fill="#f9be2d"/>
    <g id="Grupo_2382" data-name="Grupo 2382" transform="translate(2511.615 5673.12)">
      <path id="Línea_300" data-name="Línea 300" d="M-.114,21.148A1.891,1.891,0,0,1-2,19.251V-.1A1.891,1.891,0,0,1-.114-2,1.891,1.891,0,0,1,1.772-.1V19.251A1.891,1.891,0,0,1-.114,21.148Z" transform="translate(10.254 2)" fill="#f9be2d"/>
      <path id="Línea_301" data-name="Línea 301" d="M16.392,11.738a1.869,1.869,0,0,1-.967-.27L-1.083,1.524a1.9,1.9,0,0,1-.649-2.6A1.88,1.88,0,0,1,.855-1.731L17.363,8.213a1.9,1.9,0,0,1,.649,2.6A1.883,1.883,0,0,1,16.392,11.738Z" transform="translate(2 6.705)" fill="#f9be2d"/>
      <path id="Línea_302" data-name="Línea 302" d="M-.112,11.738a1.883,1.883,0,0,1-1.62-.923,1.9,1.9,0,0,1,.649-2.6L15.425-1.731a1.88,1.88,0,0,1,2.587.653,1.9,1.9,0,0,1-.649,2.6L.855,11.468A1.869,1.869,0,0,1-.112,11.738Z" transform="translate(2 6.705)" fill="#f9be2d"/>
    </g>
    <g id="Grupo_2383" data-name="Grupo 2383" transform="translate(2539.069 5673.12)">
      <path id="Línea_303" data-name="Línea 303" d="M-.114,21.148A1.891,1.891,0,0,1-2,19.251V-.1A1.891,1.891,0,0,1-.114-2,1.891,1.891,0,0,1,1.772-.1V19.251A1.891,1.891,0,0,1-.114,21.148Z" transform="translate(10.254 2)" fill="#f9be2d"/>
      <path id="Línea_304" data-name="Línea 304" d="M16.392,11.738a1.869,1.869,0,0,1-.967-.27L-1.083,1.524a1.9,1.9,0,0,1-.649-2.6A1.88,1.88,0,0,1,.855-1.731L17.363,8.213a1.9,1.9,0,0,1,.649,2.6A1.883,1.883,0,0,1,16.392,11.738Z" transform="translate(2 6.705)" fill="#f9be2d"/>
      <path id="Línea_305" data-name="Línea 305" d="M-.112,11.738a1.883,1.883,0,0,1-1.62-.923,1.9,1.9,0,0,1,.649-2.6L15.425-1.731a1.88,1.88,0,0,1,2.587.653,1.9,1.9,0,0,1-.649,2.6L.855,11.468A1.869,1.869,0,0,1-.112,11.738Z" transform="translate(2 6.705)" fill="#f9be2d"/>
    </g>
    <g id="Grupo_2384" data-name="Grupo 2384" transform="translate(2566.289 5673.12)">
      <path id="Línea_306" data-name="Línea 306" d="M-.114,21.148A1.891,1.891,0,0,1-2,19.251V-.1A1.891,1.891,0,0,1-.114-2,1.891,1.891,0,0,1,1.772-.1V19.251A1.891,1.891,0,0,1-.114,21.148Z" transform="translate(10.254 2)" fill="#f9be2d"/>
      <path id="Línea_307" data-name="Línea 307" d="M16.392,11.738a1.869,1.869,0,0,1-.967-.27L-1.083,1.524a1.9,1.9,0,0,1-.649-2.6A1.88,1.88,0,0,1,.855-1.731L17.363,8.213a1.9,1.9,0,0,1,.649,2.6A1.883,1.883,0,0,1,16.392,11.738Z" transform="translate(2 6.705)" fill="#f9be2d"/>
      <path id="Línea_308" data-name="Línea 308" d="M-.112,11.738a1.883,1.883,0,0,1-1.62-.923,1.9,1.9,0,0,1,.649-2.6L15.425-1.731a1.88,1.88,0,0,1,2.587.653,1.9,1.9,0,0,1-.649,2.6L.855,11.468A1.869,1.869,0,0,1-.112,11.738Z" transform="translate(2 6.705)" fill="#f9be2d"/>
    </g>
    <g id="lock" transform="translate(2593.87 5672.255)">
      <path id="Rectángulo_1178" data-name="Rectángulo 1178" d="M5.337-1H34.911a6.363,6.363,0,0,1,6.337,6.374V20.248a6.363,6.363,0,0,1-6.337,6.374H5.337A6.363,6.363,0,0,1-1,20.248V5.374A6.363,6.363,0,0,1,5.337-1ZM34.911,22.372a2.121,2.121,0,0,0,2.112-2.125V5.374A2.121,2.121,0,0,0,34.911,3.25H5.337A2.121,2.121,0,0,0,3.225,5.374V20.248a2.121,2.121,0,0,0,2.112,2.125Z" transform="translate(1 20.123)" fill="#f9be2d"/>
      <path id="Trazado_4620" data-name="Trazado 4620" d="M29.236,24.372a2.119,2.119,0,0,1-2.112-2.125v-8.5a8.484,8.484,0,0,0-8.45-8.5A8.37,8.37,0,0,0,12.7,7.739a8.469,8.469,0,0,0-2.475,6.01v8.5a2.112,2.112,0,1,1-4.225,0v-8.5A12.7,12.7,0,0,1,9.712,4.734,12.554,12.554,0,0,1,18.674,1,12.726,12.726,0,0,1,31.349,13.749v8.5A2.119,2.119,0,0,1,29.236,24.372Z" transform="translate(2.45 -1)" fill="#f9be2d"/>
    </g>
  </g>
</svg>
