<?xml version="1.0" encoding="UTF-8" standalone="no"?>
<!DOCTYPE svg PUBLIC "-//W3C//DTD SVG 1.1//EN"
 "http://www.w3.org/Graphics/SVG/1.1/DTD/svg11.dtd">
<!-- Generated by graphviz version 2.47.0 (20210316.0004)
 -->
<!-- Title: dependencies Pages: 1 -->
<svg width="504pt" height="211pt"
 viewBox="0.00 0.00 504.00 211.00" xmlns="http://www.w3.org/2000/svg" xmlns:xlink="http://www.w3.org/1999/xlink">
<g id="graph0" class="graph" transform="scale(1 1) rotate(0) translate(4 207)">
<title>dependencies</title>
<polygon fill="white" stroke="transparent" points="-4,4 -4,-207 500,-207 500,4 -4,4"/>
<text text-anchor="start" x="227.01" y="-42.4" font-family="Times-12" font-weight="bold" font-size="14.00">Legend</text>
<polygon fill="#ffffb3" stroke="transparent" points="14,-10 14,-30 34,-30 34,-10 14,-10"/>
<text text-anchor="start" x="37.63" y="-15.4" font-family="Times-12" font-size="14.00"> &#160;Declarations</text>
<polygon fill="#8dd3c7" stroke="transparent" points="127,-10 127,-30 147,-30 147,-10 127,-10"/>
<text text-anchor="start" x="150.73" y="-15.4" font-family="Times-12" font-size="14.00"> &#160;Module</text>
<polygon fill="#80b1d3" stroke="transparent" points="213,-10 213,-30 233,-30 233,-10 213,-10"/>
<text text-anchor="start" x="236.78" y="-15.4" font-family="Times-12" font-size="14.00"> &#160;Bootstrap</text>
<polygon fill="#fdb462" stroke="transparent" points="310,-10 310,-30 330,-30 330,-10 310,-10"/>
<text text-anchor="start" x="333.67" y="-15.4" font-family="Times-12" font-size="14.00"> &#160;Providers</text>
<polygon fill="#fb8072" stroke="transparent" points="406,-10 406,-30 426,-30 426,-10 406,-10"/>
<text text-anchor="start" x="429.73" y="-15.4" font-family="Times-12" font-size="14.00"> &#160;Exports</text>
<g id="clust1" class="cluster">
<title>cluster_MixpayResponseModule</title>
<polygon fill="none" stroke="black" stroke-dasharray="1,5" points="99,-70 99,-195 397,-195 397,-70 99,-70"/>
</g>
<g id="clust2" class="cluster">
<title>cluster_MixpayResponseModule_declarations</title>
<polygon fill="none" stroke="black" points="195,-78 195,-130 389,-130 389,-78 195,-78"/>
</g>
<g id="clust4" class="cluster">
<title>cluster_MixpayResponseModule_imports</title>
<polygon fill="none" stroke="black" points="107,-78 107,-130 187,-130 187,-78 107,-78"/>
</g>
<!-- MixpayResponseComponent -->
<g id="node1" class="node">
<title>MixpayResponseComponent</title>
<polygon fill="#ffffb3" stroke="black" points="381.04,-122 202.96,-122 202.96,-86 381.04,-86 381.04,-122"/>
<text text-anchor="middle" x="292" y="-99.8" font-family="Times,serif" font-size="14.00">MixpayResponseComponent</text>
</g>
<!-- MixpayResponseModule -->
<g id="node2" class="node">
<title>MixpayResponseModule</title>
<polygon fill="#8dd3c7" stroke="black" points="316.25,-187 313.25,-191 292.25,-191 289.25,-187 159.75,-187 159.75,-151 316.25,-151 316.25,-187"/>
<text text-anchor="middle" x="238" y="-164.8" font-family="Times,serif" font-size="14.00">MixpayResponseModule</text>
</g>
<!-- MixpayResponseComponent&#45;&gt;MixpayResponseModule -->
<g id="edge1" class="edge">
<title>MixpayResponseComponent&#45;&gt;MixpayResponseModule</title>
<path fill="none" stroke="black" d="M259.55,-122.11C259.55,-122.11 259.55,-140.99 259.55,-140.99"/>
<polygon fill="black" stroke="black" points="256.05,-140.99 259.55,-150.99 263.05,-140.99 256.05,-140.99"/>
</g>
<!-- NgClass -->
<g id="node3" class="node">
<title>NgClass</title>
<polygon fill="#8dd3c7" stroke="black" points="178.94,-122 175.94,-126 154.94,-126 151.94,-122 115.06,-122 115.06,-86 178.94,-86 178.94,-122"/>
<text text-anchor="middle" x="147" y="-99.8" font-family="Times,serif" font-size="14.00">NgClass</text>
</g>
<!-- NgClass&#45;&gt;MixpayResponseModule -->
<g id="edge2" class="edge">
<title>NgClass&#45;&gt;MixpayResponseModule</title>
<path fill="none" stroke="black" d="M169.17,-122.11C169.17,-122.11 169.17,-140.99 169.17,-140.99"/>
<polygon fill="black" stroke="black" points="165.67,-140.99 169.17,-150.99 172.67,-140.99 165.67,-140.99"/>
</g>
</g>
</svg>
