<?xml version="1.0" encoding="UTF-8" standalone="no"?>
<!DOCTYPE svg PUBLIC "-//W3C//DTD SVG 1.1//EN"
 "http://www.w3.org/Graphics/SVG/1.1/DTD/svg11.dtd">
<!-- Generated by graphviz version 2.47.0 (20210316.0004)
 -->
<!-- Title: dependencies Pages: 1 -->
<svg width="1098pt" height="284pt"
 viewBox="0.00 0.00 1098.00 284.00" xmlns="http://www.w3.org/2000/svg" xmlns:xlink="http://www.w3.org/1999/xlink">
<g id="graph0" class="graph" transform="scale(1 1) rotate(0) translate(4 280)">
<title>dependencies</title>
<polygon fill="white" stroke="transparent" points="-4,4 -4,-280 1094,-280 1094,4 -4,4"/>
<text text-anchor="start" x="524.01" y="-42.4" font-family="Times-12" font-weight="bold" font-size="14.00">Legend</text>
<polygon fill="#ffffb3" stroke="transparent" points="311,-10 311,-30 331,-30 331,-10 311,-10"/>
<text text-anchor="start" x="334.63" y="-15.4" font-family="Times-12" font-size="14.00"> &#160;Declarations</text>
<polygon fill="#8dd3c7" stroke="transparent" points="424,-10 424,-30 444,-30 444,-10 424,-10"/>
<text text-anchor="start" x="447.73" y="-15.4" font-family="Times-12" font-size="14.00"> &#160;Module</text>
<polygon fill="#80b1d3" stroke="transparent" points="510,-10 510,-30 530,-30 530,-10 510,-10"/>
<text text-anchor="start" x="533.78" y="-15.4" font-family="Times-12" font-size="14.00"> &#160;Bootstrap</text>
<polygon fill="#fdb462" stroke="transparent" points="607,-10 607,-30 627,-30 627,-10 607,-10"/>
<text text-anchor="start" x="630.67" y="-15.4" font-family="Times-12" font-size="14.00"> &#160;Providers</text>
<polygon fill="#fb8072" stroke="transparent" points="703,-10 703,-30 723,-30 723,-10 703,-10"/>
<text text-anchor="start" x="726.73" y="-15.4" font-family="Times-12" font-size="14.00"> &#160;Exports</text>
<g id="clust1" class="cluster">
<title>cluster_AppModule</title>
<polygon fill="none" stroke="black" stroke-dasharray="1,5" points="8,-70 8,-268 1082,-268 1082,-70 8,-70"/>
</g>
<g id="clust2" class="cluster">
<title>cluster_AppModule_declarations</title>
<polygon fill="none" stroke="black" points="952,-78 952,-130 1074,-130 1074,-78 952,-78"/>
</g>
<g id="clust4" class="cluster">
<title>cluster_AppModule_imports</title>
<polygon fill="none" stroke="black" points="574,-78 574,-130 944,-130 944,-78 574,-78"/>
</g>
<g id="clust6" class="cluster">
<title>cluster_AppModule_bootstrap</title>
<polygon fill="none" stroke="black" points="569,-208 569,-260 693,-260 693,-208 569,-208"/>
</g>
<g id="clust7" class="cluster">
<title>cluster_AppModule_providers</title>
<polygon fill="none" stroke="black" points="16,-78 16,-130 566,-130 566,-78 16,-78"/>
</g>
<!-- AppComponent -->
<g id="node1" class="node">
<title>AppComponent</title>
<polygon fill="#ffffb3" stroke="black" points="1065.94,-122 960.06,-122 960.06,-86 1065.94,-86 1065.94,-122"/>
<text text-anchor="middle" x="1013" y="-99.8" font-family="Times,serif" font-size="14.00">AppComponent</text>
</g>
<!-- AppModule -->
<g id="node2" class="node">
<title>AppModule</title>
<polygon fill="#8dd3c7" stroke="black" points="672.66,-187 669.66,-191 648.66,-191 645.66,-187 589.34,-187 589.34,-151 672.66,-151 672.66,-187"/>
<text text-anchor="middle" x="631" y="-164.8" font-family="Times,serif" font-size="14.00">AppModule</text>
</g>
<!-- AppComponent&#45;&gt;AppModule -->
<g id="edge1" class="edge">
<title>AppComponent&#45;&gt;AppModule</title>
<path fill="none" stroke="black" d="M1013,-122.29C1013,-144.21 1013,-178 1013,-178 1013,-178 682.97,-178 682.97,-178"/>
<polygon fill="black" stroke="black" points="682.97,-174.5 672.97,-178 682.97,-181.5 682.97,-174.5"/>
</g>
<!-- AppComponent  -->
<g id="node6" class="node">
<title>AppComponent </title>
<polygon fill="#80b1d3" stroke="black" points="685.44,-252 576.56,-252 576.56,-216 685.44,-216 685.44,-252"/>
<text text-anchor="middle" x="631" y="-229.8" font-family="Times,serif" font-size="14.00">AppComponent </text>
</g>
<!-- AppModule&#45;&gt;AppComponent  -->
<g id="edge5" class="edge">
<title>AppModule&#45;&gt;AppComponent </title>
<path fill="none" stroke="black" stroke-dasharray="1,5" d="M631,-187.11C631,-187.11 631,-205.99 631,-205.99"/>
<polygon fill="black" stroke="black" points="627.5,-205.99 631,-215.99 634.5,-205.99 627.5,-205.99"/>
</g>
<!-- AppRoutingModule -->
<g id="node3" class="node">
<title>AppRoutingModule</title>
<polygon fill="#8dd3c7" stroke="black" points="936.27,-122 933.27,-126 912.27,-126 909.27,-122 807.73,-122 807.73,-86 936.27,-86 936.27,-122"/>
<text text-anchor="middle" x="872" y="-99.8" font-family="Times,serif" font-size="14.00">AppRoutingModule</text>
</g>
<!-- AppRoutingModule&#45;&gt;AppModule -->
<g id="edge2" class="edge">
<title>AppRoutingModule&#45;&gt;AppModule</title>
<path fill="none" stroke="black" d="M872,-122.11C872,-141.34 872,-169 872,-169 872,-169 682.7,-169 682.7,-169"/>
<polygon fill="black" stroke="black" points="682.7,-165.5 672.7,-169 682.7,-172.5 682.7,-165.5"/>
</g>
<!-- PagesModule -->
<g id="node4" class="node">
<title>PagesModule</title>
<polygon fill="#8dd3c7" stroke="black" points="790.21,-122 787.21,-126 766.21,-126 763.21,-122 697.79,-122 697.79,-86 790.21,-86 790.21,-122"/>
<text text-anchor="middle" x="744" y="-99.8" font-family="Times,serif" font-size="14.00">PagesModule</text>
</g>
<!-- PagesModule&#45;&gt;AppModule -->
<g id="edge3" class="edge">
<title>PagesModule&#45;&gt;AppModule</title>
<path fill="none" stroke="black" d="M744,-122.03C744,-138.4 744,-160 744,-160 744,-160 682.76,-160 682.76,-160"/>
<polygon fill="black" stroke="black" points="682.76,-156.5 672.76,-160 682.76,-163.5 682.76,-156.5"/>
</g>
<!-- SharedModule -->
<g id="node5" class="node">
<title>SharedModule</title>
<polygon fill="#8dd3c7" stroke="black" points="680.42,-122 677.42,-126 656.42,-126 653.42,-122 581.58,-122 581.58,-86 680.42,-86 680.42,-122"/>
<text text-anchor="middle" x="631" y="-99.8" font-family="Times,serif" font-size="14.00">SharedModule</text>
</g>
<!-- SharedModule&#45;&gt;AppModule -->
<g id="edge4" class="edge">
<title>SharedModule&#45;&gt;AppModule</title>
<path fill="none" stroke="black" d="M631,-122.11C631,-122.11 631,-140.99 631,-140.99"/>
<polygon fill="black" stroke="black" points="627.5,-140.99 631,-150.99 634.5,-140.99 627.5,-140.99"/>
</g>
<!-- AuthInterceptor -->
<g id="node7" class="node">
<title>AuthInterceptor</title>
<ellipse fill="#fdb462" stroke="black" cx="485" cy="-104" rx="72.91" ry="18"/>
<text text-anchor="middle" x="485" y="-99.8" font-family="Times,serif" font-size="14.00">AuthInterceptor</text>
</g>
<!-- AuthInterceptor&#45;&gt;AppModule -->
<g id="edge6" class="edge">
<title>AuthInterceptor&#45;&gt;AppModule</title>
<path fill="none" stroke="black" d="M485,-122.03C485,-138.4 485,-160 485,-160 485,-160 579.16,-160 579.16,-160"/>
<polygon fill="black" stroke="black" points="579.16,-163.5 589.16,-160 579.16,-156.5 579.16,-163.5"/>
</g>
<!-- HttpConfigInterceptor -->
<g id="node8" class="node">
<title>HttpConfigInterceptor</title>
<ellipse fill="#fdb462" stroke="black" cx="297" cy="-104" rx="97.27" ry="18"/>
<text text-anchor="middle" x="297" y="-99.8" font-family="Times,serif" font-size="14.00">HttpConfigInterceptor</text>
</g>
<!-- HttpConfigInterceptor&#45;&gt;AppModule -->
<g id="edge7" class="edge">
<title>HttpConfigInterceptor&#45;&gt;AppModule</title>
<path fill="none" stroke="black" d="M297,-122.11C297,-141.34 297,-169 297,-169 297,-169 579.04,-169 579.04,-169"/>
<polygon fill="black" stroke="black" points="579.04,-172.5 589.04,-169 579.04,-165.5 579.04,-172.5"/>
</g>
<!-- SpinnerIntercetor -->
<g id="node9" class="node">
<title>SpinnerIntercetor</title>
<ellipse fill="#fdb462" stroke="black" cx="103" cy="-104" rx="78.71" ry="18"/>
<text text-anchor="middle" x="103" y="-99.8" font-family="Times,serif" font-size="14.00">SpinnerIntercetor</text>
</g>
<!-- SpinnerIntercetor&#45;&gt;AppModule -->
<g id="edge8" class="edge">
<title>SpinnerIntercetor&#45;&gt;AppModule</title>
<path fill="none" stroke="black" d="M103,-122.29C103,-144.21 103,-178 103,-178 103,-178 579.13,-178 579.13,-178"/>
<polygon fill="black" stroke="black" points="579.13,-181.5 589.13,-178 579.13,-174.5 579.13,-181.5"/>
</g>
</g>
</svg>
