<svg xmlns="http://www.w3.org/2000/svg" width="101.287" height="100.333" viewBox="0 0 101.287 100.333">
  <g id="Grupo_765" data-name="Grupo 765" transform="translate(-519.923 -355.42)">
    <path id="Trazado_2337" data-name="Trazado 2337" d="M608.551,415.294V373.607l-57.131,33.155V448.45Z" transform="translate(12.65 7.304)" fill="#d9b059"/>
    <path id="Trazado_2338" data-name="Trazado 2338" d="M564.068,404.566l-44.141-25.489v41.686l44.141,25.489Z" transform="translate(0.002 9.501)" fill="#bf8a39"/>
    <path id="Trazado_2339" data-name="Trazado 2339" d="M621.21,380.912l-57.142,33.154-44.145-25.492,57.142-33.154Z" transform="translate(0 0)" fill="#facb6b"/>
    <g id="Grupo_762" data-name="Grupo 762" transform="translate(540.803 364.677)">
      <path id="Trazado_2340" data-name="Trazado 2340" d="M534.821,444.956V396.773l59.565-34.749v4.2l-1.543-.532-55.63,32.455v42.689l2.227,1.5Z" transform="translate(-534.821 -362.025)" fill="#17353d"/>
    </g>
    <g id="Grupo_763" data-name="Grupo 763" transform="translate(548.713 367.701)">
      <path id="Trazado_2341" data-name="Trazado 2341" d="M586.974,439.592l-4.716-2.7,2.324-1.42h0v-42.69L542,367.854l-1.54.5v-4.17l46.51,27.229Z" transform="translate(-540.464 -364.182)" fill="#17353d"/>
    </g>
    <g id="Grupo_764" data-name="Grupo 764" transform="translate(598.379 409.327)">
      <path id="Trazado_2342" data-name="Trazado 2342" d="M577.1,404.211l17.7-10.219a.815.815,0,0,1,1.222.706v9.5a2.392,2.392,0,0,1-1.2,2.073l-17.7,10.218a.815.815,0,0,1-1.222-.7v-9.5A2.392,2.392,0,0,1,577.1,404.211Z" transform="translate(-575.899 -393.881)" fill="#dae6e8"/>
      <path id="Trazado_2343" data-name="Trazado 2343" d="M590.615,396.129l-6.528,3.77v7.577l6.528-3.769Z" transform="translate(-572.611 -392.978)" fill="#17353d"/>
      <path id="Trazado_2344" data-name="Trazado 2344" d="M588.164,395.952l-1.018.588v3.478l1.018-.588Z" transform="translate(-571.382 -393.05)" fill="#dae6e8"/>
      <path id="Trazado_2345" data-name="Trazado 2345" d="M587.012,402.077l-1.295.748v1.5l1.295-.748Z" transform="translate(-571.956 -390.589)" fill="#dae6e8"/>
      <path id="Trazado_2346" data-name="Trazado 2346" d="M586.373,398.9l-2.288,1.321v2.655l2.288-1.321Z" transform="translate(-572.612 -391.865)" fill="#dae6e8"/>
      <path id="Trazado_2347" data-name="Trazado 2347" d="M588.949,399.912l-1.673.966v1.942l1.673-.966Z" transform="translate(-571.33 -391.459)" fill="#dae6e8"/>
      <path id="Trazado_2348" data-name="Trazado 2348" d="M587.1,399.471l-.807.466v.937l.807-.466Z" transform="translate(-571.725 -391.636)" fill="#dae6e8"/>
      <path id="Trazado_2349" data-name="Trazado 2349" d="M586.524,397.493l-.807.466v1.509l.807-.466Z" transform="translate(-571.956 -392.431)" fill="#dae6e8"/>
      <path id="Trazado_2350" data-name="Trazado 2350" d="M585.948,401.523l-.807.466V403.5l.807-.466Z" transform="translate(-572.187 -390.812)" fill="#dae6e8"/>
      <path id="Trazado_2351" data-name="Trazado 2351" d="M588.37,398.757l-.807.466v.937l.807-.466Z" transform="translate(-571.215 -391.923)" fill="#dae6e8"/>
      <path id="Trazado_2352" data-name="Trazado 2352" d="M587.391,400.266l-.4.233v.468l.4-.233Z" transform="translate(-571.446 -391.317)" fill="#dae6e8"/>
      <path id="Trazado_2353" data-name="Trazado 2353" d="M586.409,399.471l-.4.233v.468l.4-.233Z" transform="translate(-571.84 -391.636)" fill="#dae6e8"/>
      <path id="Trazado_2354" data-name="Trazado 2354" d="M587.679,399.758l-.4.233v.468l.4-.233Z" transform="translate(-571.33 -391.521)" fill="#dae6e8"/>
      <path id="Trazado_2355" data-name="Trazado 2355" d="M588.111,399.031l-.4.233v.468l.4-.233Z" transform="translate(-571.157 -391.813)" fill="#17353d"/>
      <path id="Trazado_2356" data-name="Trazado 2356" d="M585.4,402.6l-1.312.757v1.523l1.312-.757Z" transform="translate(-572.611 -390.38)" fill="#dae6e8"/>
      <path id="Trazado_2357" data-name="Trazado 2357" d="M584.977,403.042l-.656.379v.761l.656-.379Z" transform="translate(-572.517 -390.202)" fill="#17353d"/>
      <path id="Trazado_2358" data-name="Trazado 2358" d="M587.036,400.289l-.169.1v.2l.169-.1Z" transform="translate(-571.494 -391.308)" fill="#dae6e8"/>
      <path id="Trazado_2359" data-name="Trazado 2359" d="M587.156,400.079l-.169.1v.2l.169-.1Z" transform="translate(-571.446 -391.392)" fill="#dae6e8"/>
      <path id="Trazado_2360" data-name="Trazado 2360" d="M587.036,400.008l-.169.1v.2l.169-.1Z" transform="translate(-571.494 -391.421)" fill="#dae6e8"/>
      <path id="Trazado_2361" data-name="Trazado 2361" d="M586.524,400.472l-.807.466v.937l.807-.466Z" transform="translate(-571.956 -391.234)" fill="#dae6e8"/>
      <path id="Trazado_2362" data-name="Trazado 2362" d="M588.527,400.318l-1.018.588v1.182l1.018-.588Z" transform="translate(-571.236 -391.296)" fill="#17353d"/>
      <path id="Trazado_2363" data-name="Trazado 2363" d="M588.527,396.953l-1.018.588v1.182l1.018-.588Z" transform="translate(-571.236 -392.648)" fill="#17353d"/>
      <path id="Trazado_2364" data-name="Trazado 2364" d="M587.7,398.221l-1.018.588v1.182l1.018-.588Z" transform="translate(-571.567 -392.138)" fill="#17353d"/>
      <path id="Trazado_2365" data-name="Trazado 2365" d="M585.556,400.011l-1.018.588v1.182l1.018-.588Z" transform="translate(-572.43 -391.419)" fill="#17353d"/>
      <path id="Trazado_2366" data-name="Trazado 2366" d="M586.167,399.281l-2.08,1.241V401.7l2.08-1.241Z" transform="translate(-572.611 -391.713)" fill="#17353d"/>
      <path id="Trazado_2367" data-name="Trazado 2367" d="M587.979,397.174l-2.08,1.241V399.6l2.08-1.241Z" transform="translate(-571.883 -392.559)" fill="#17353d"/>
      <path id="Trazado_2368" data-name="Trazado 2368" d="M584.578,399.7l-6.528,3.769v1.076l6.528-3.769Z" transform="translate(-575.035 -391.542)" fill="#17353d"/>
      <path id="Trazado_2369" data-name="Trazado 2369" d="M584.578,401.211l-6.528,3.77v.454l6.528-3.769Z" transform="translate(-575.035 -390.937)" fill="#17353d"/>
      <path id="Trazado_2370" data-name="Trazado 2370" d="M584.578,402.122l-6.528,3.769v.454l6.528-3.769Z" transform="translate(-575.035 -390.572)" fill="#17353d"/>
      <path id="Trazado_2371" data-name="Trazado 2371" d="M584.578,403.033l-6.528,3.77v.454l6.528-3.769Z" transform="translate(-575.035 -390.206)" fill="#17353d"/>
      <path id="Trazado_2372" data-name="Trazado 2372" d="M583.569,404.686l-3.009,1.741v.454l3.009-1.741Z" transform="translate(-574.027 -389.542)" fill="#17353d"/>
    </g>
  </g>
</svg>
